<?xml version="1.0" encoding="utf-8"?>
<!-- Generator: Adobe Illustrator 22.0.1, SVG Export Plug-In . SVG Version: 6.00 Build 0)  -->
<svg version="1.1" id="Layer_1" xmlns="http://www.w3.org/2000/svg" xmlns:xlink="http://www.w3.org/1999/xlink" x="0px" y="0px"
	 viewBox="0 0 500 500" style="enable-background:new 0 0 500 500;" xml:space="preserve">
<style type="text/css">
	.st0{fill:#2880C3;}
</style>
<g>
	<path class="st0" d="M1,258c0.5-7.8-0.8-16.9,0.8-25.8c2.3-15.1,10.4-26.3,24.2-33.1c3.4-1.8,5.5-3.4,6.2-7.6
		c6-32.5,19-62.2,38.3-89.1c2.3-3.1,3.9-5.2,1-9.1c-3.6-5.2-1-9.9,2.9-14.1c27.3-31,60.2-53.6,99.2-65.6
		c93.2-28.6,175.2-9.1,245.5,58.8c6.5,6.2,15.1,12.5,6.8,23.7c-1.3,1.8,1,3.4,2.1,4.9c20.1,27.3,33.3,57.8,39.3,91.1
		c0.8,3.6,2.9,4.9,5.7,6.2c16.9,8.6,25,22.7,25.3,41.1c0,16.7,1.8,33.6-1,50.3c-3.9,24-28.4,40.6-51.8,35.7c-7-1.6-9.1-7-9.1-13.8
		c0-27.3,0.8-54.9,0-82.3c-1.8-73.7-35.2-129.2-99.5-164.8C228.9,5.7,90.6,71.3,66.7,192.4c-4.2,21.1-3.4,42.2-3.1,63.3
		c0.3,19.8,0,39.3-0.5,59.1c-0.3,7-4.2,10.9-11.7,11.2C21.4,327.3,1,308.3,1,278.3C1,271.8,1,265.6,1,258"/>
	<path class="st0" d="M216.7,361.9c11.5-4.2,19.5-11.5,21.9-23.7c2.3-12-11.7-29.2-31.5-47.4c-20.3-18.7-46.9-38-61.7-45.3
		c-21.1-11.7-40.6-1.8-45,22.1c-4.9,25.5,0,50,14.1,71.9c9.9,15.1,24.7,22.1,42.2,23.4C168,363.5,207.8,365,216.7,361.9"/>
	<path class="st0" d="M305.2,362.4c12.5,1.8,25,3.9,37.8,4.9c16.9,1.3,29.9-4.2,39.6-14.3c12.2-12.8,17.7-27.6,17.2-44.5
		c-0.8-16.9-15.4-27.1-35.4-23.7c-18,2.9-33.9,9.6-50,15.9c-14.3,5.5-27.6,12.2-38.3,21.6c-14.8,13.5-6.8,31.5,16.7,37.5
		C296.6,360.9,301,361.6,305.2,362.4"/>
	<path class="st0" d="M438,358.5c-2.9-2.3-7-1-8.1,2.3c-7.8,24.7-43.5,109.4-167.4,118.2c-145.6,10.2,78.1,42.4,141.4-6.2
		c22.1-16.9,46.3-34.1,45.3-83.1C448.9,379.9,444.5,363.7,438,358.5"/>
</g>
</svg>
